<svg width="3573" height="2699" viewBox="0 0 3573 2699" fill="none" xmlns="http://www.w3.org/2000/svg">
<g clip-path="url(#clip0_1_1509)">
<path d="M4535.09 -2729.6L-11.6177 -2840.32L-356.541 3586.37L4190.16 3697.09L4535.09 -2729.6Z" fill="#3D22AA"/>
<g opacity="0.99">
<path opacity="0.99" d="M4549.25 -3068.29L86.9525 -3167L-356.537 3598.37L4105.76 3697.09L4549.25 -3068.29Z" fill="url(#paint0_linear_1_1509)"/>
</g>
<path opacity="0.1" d="M273.585 2379.04C219.4 2861.2 -255.356 3042.3 -79.0521 3575.25C-42.3938 3686.03 -271.274 3502.16 -333.331 3242.65C-412.297 2912.88 -499.506 2463.15 -493.432 2357.75C-482.687 2169.46 -437.903 1666.68 -226.196 1672.52C-14.4889 1678.37 318.086 1983.3 273.585 2379.04Z" stroke="#5C40C1" stroke-width="2.53391" stroke-miterlimit="10"/>
<path opacity="0.1" d="M6.37594 3540.57C138.962 3997.35 1017.6 4398.09 1486.43 4012.04C2291.61 3349.05 2343.19 2053.31 1854.39 2172.64C1070.53 2364.11 1112.96 2000.6 915.302 1748.67C762.92 1554.35 278.067 1590.24 351.567 2224.73C415.941 2780.66 -126.612 3082.46 6.37594 3540.57Z" stroke="#5C40C1" stroke-width="2.53391" stroke-miterlimit="10"/>
<path opacity="0.1" d="M1533.61 681.606C1648.36 950.51 1920.13 1035.8 2067.17 746.685C2224.03 438.194 2197.18 97.3509 2127.86 -169.864C2049.72 -471.037 1761.02 -539.877 1516.27 -579.983C938.276 -674.542 461.581 -404.466 888.456 -124.66C1327.93 163.431 1410.15 392.263 1533.61 681.606Z" stroke="#5C40C1" stroke-width="2.53391" stroke-miterlimit="10"/>
<path opacity="0.1" d="M1243.42 -1780.79C867.724 -1588.7 698.159 -2089.5 313.245 -1744.34C-10.0866 -1454.43 -60.7068 -1185.58 -181.957 -886.853C-321.783 -542.405 -522.56 -262.992 -382.868 -61.0256C24.6174 527.531 356.652 418.224 598.22 -325.562C749.298 -790.794 944.397 -849.611 1358.47 -696.383C1772.54 -543.156 2066.38 -811.107 2201.95 -1209.87C2292.45 -1476 2385.85 -2027.35 2199.65 -2117.71C2038.23 -2196.09 1586.79 -1956.3 1243.42 -1780.79Z" stroke="#5C40C1" stroke-width="2.53391" stroke-miterlimit="10"/>
<g style="mix-blend-mode:screen" opacity="0.05">
<path style="mix-blend-mode:screen" opacity="0.05" d="M4550.81 -3110.99L128.764 -3204.7L-407.844 3639.66L4014.21 3733.37L4550.81 -3110.99Z" fill="url(#paint1_linear_1_1509)"/>
</g>
<g style="mix-blend-mode:overlay">
<g style="mix-blend-mode:overlay" opacity="0.1">
<path d="M1440.03 2118.19C1556.75 2084 1685.02 2001.52 1816.04 1820.64C2066.43 1474.94 2117.07 1095.78 1734.33 1051.51C1424.98 1015.73 1411.03 477.735 1023.75 142.636C672.201 -161.528 400.951 408.287 203.731 425.232C-283.599 467.242 -523.97 -102.027 -554.847 689.135C-600.588 1863.82 273.574 1404.54 573.751 1446.85C1004.57 1507.6 1096.72 1857.31 1113.55 1910.94C1145.96 2014.15 1194.02 2190.03 1440.03 2118.19Z" fill="#2E1980"/>
</g>
<path style="mix-blend-mode:overlay" d="M207.831 1035.14C215.775 1042.33 225.388 1048.1 236.122 1052.13C246.856 1056.16 258.5 1058.38 270.389 1058.64C282.278 1058.9 294.18 1057.21 305.414 1053.66C316.648 1050.11 326.994 1044.78 335.862 1037.96C344.732 1031.15 351.95 1022.98 357.104 1013.94C362.257 1004.89 365.246 995.134 365.899 985.232C366.553 975.33 364.858 965.473 360.911 956.225C356.964 946.976 350.843 938.517 342.897 931.33C334.953 924.142 325.339 918.367 314.605 914.334C303.872 910.302 292.227 908.092 280.338 907.829C268.449 907.567 256.548 909.257 245.314 912.805C234.08 916.352 223.733 921.686 214.865 928.503C205.996 935.319 198.778 943.484 193.624 952.531C188.47 961.579 185.481 971.332 184.828 981.234C184.175 991.137 185.87 1000.99 189.817 1010.24C193.764 1019.49 199.885 1027.95 207.831 1035.14V1035.14Z" fill="url(#paint2_linear_1_1509)"/>
<g style="mix-blend-mode:overlay" opacity="0.1">
<path d="M1535.05 593.298C1663.23 798.659 1930.46 898.145 2037.52 634.43C2155.24 344.57 2149.38 149.914 2085.41 -92.8886C2013.28 -366.437 1746.36 -462.563 1518.79 -515.753C1014.72 -633.664 538.551 -430.476 945.004 -121.445C1380.4 209.565 1379.55 344.092 1535.05 593.298Z" fill="#2E1980"/>
</g>
<g style="mix-blend-mode:overlay" opacity="0.1">
<path d="M1381.18 -1804.46C1331.48 -1779.21 1283.72 -1751.33 1238.22 -1720.99C907.984 -1504.04 715.46 -2036.45 341.451 -1714.24C27.3105 -1443.58 -19.7782 -1193.95 -153.569 -922.09C-309.431 -605.708 -394.628 -292.659 -262.099 -104.703C124.472 443.303 335.607 328.272 575.379 -365.393C725.33 -799.228 937.608 -903.537 1335.06 -761.278C1732.51 -619.019 2002.6 -818.959 2136.95 -1190.72C2226.69 -1439 2305.12 -1921.12 2126.59 -2005.15C1971.91 -2077.94 1617.17 -1932.38 1381.18 -1804.46Z" fill="#341892"/>
</g>
<g style="mix-blend-mode:overlay" opacity="0.1">
<path d="M-352.693 1350.63C-352.693 1350.63 -221.826 1435.95 15.4302 1430.04C252.686 1424.12 542.85 1205.18 687.999 1296.78C1063.15 1533.41 1141.23 1810.26 1214.92 1951.12C1250.37 2018.97 1453.11 2214.81 1776.69 1691.75C2100.27 1168.68 1738.91 1139.83 1621.24 1188.26C1482.3 1245.35 1478.6 1139.45 1407.56 938.424C1336.51 737.399 1066.66 243.647 886.54 215.16C702.166 185.99 644.61 413.666 482.368 538.163C320.126 662.659 132.263 733.178 -190.586 474.287C-513.434 215.395 -352.693 1350.63 -352.693 1350.63Z" fill="#0A0032"/>
</g>
<g style="mix-blend-mode:overlay" opacity="0.05">
<path d="M1286.13 1445.65C1165.79 1645.03 1271.94 1944.44 1348.92 1962.54C1425.9 1980.64 1529.91 1929.58 1651.92 1724.7C1773.93 1519.81 1903.25 1241.65 1568.72 1296.54C1383.97 1326.74 1286.13 1445.65 1286.13 1445.65Z" fill="#0B0038"/>
</g>
<g style="mix-blend-mode:overlay" opacity="0.05">
<path d="M1213.99 1375.86C1290.89 1247.09 1202.21 783.486 1154.28 676.521C1106.35 569.555 997.28 374.203 881.33 383.915C765.379 393.627 524.15 777.463 337.212 826.859C150.274 876.255 -240.805 402.648 -265.674 778.987C-290.543 1155.33 -356.69 1324.48 -111.677 1329.89C133.336 1335.29 475.147 1093.05 591.072 1063.19C706.996 1033.34 821.085 1214.32 886.765 1316.13C952.444 1417.94 1117.71 1537.12 1213.99 1375.86Z" fill="#0B0038"/>
</g>
<g style="mix-blend-mode:overlay" opacity="0.1">
<path d="M1828.67 556.861C1962.44 444.382 2066.91 28.6723 1877.74 -210.006C1688.56 -448.685 1181.19 -481.038 1087.11 -365.309C993.019 -249.58 1161.56 -101.384 1275.54 26.7237C1389.51 154.832 1474.59 276.749 1554.84 411.986C1609.4 503.782 1723.06 645.652 1828.67 556.861Z" fill="#0A0032"/>
</g>
<g style="mix-blend-mode:overlay" opacity="0.05">
<path d="M1751.5 364.1C1841.81 288.189 1948.28 -7.44244 1820.57 -168.53C1692.85 -329.618 1314.4 -336.274 1250.89 -258.204C1187.38 -180.134 1301.15 -80.092 1378.1 6.34277C1455.05 92.7776 1512.49 175.063 1566.66 266.254C1603.5 328.245 1680.22 423.97 1751.5 364.1Z" fill="black"/>
</g>
<g style="mix-blend-mode:overlay" opacity="0.1">
<path d="M1447.95 -1674.69C1409.52 -1647.67 1372.72 -1619.05 1337.72 -1588.96C1181.81 -1467.5 1104.69 -1389.14 1071.71 -1377.06C890.954 -1310.82 724.666 -1886.52 360.271 -1586.3C125.422 -1392.82 -101.244 -947.66 -162.089 -652.984C-222.933 -358.308 -128.078 7.13065 112.535 -17.0181C339.803 -39.8206 499.69 -526.447 664.353 -727.112C728.276 -805.026 860.143 -1083.37 1098.94 -977.925C1206.81 -930.186 1252.93 -904.407 1430.94 -829.159C1434.01 -827.821 1437.25 -826.772 1440.61 -826.031C1508.95 -799.835 1566.37 -790.632 1633.62 -803.523C1831.11 -841.457 1968.74 -1110.09 1994.34 -1352.01C2044.01 -1821.77 1842.68 -1948.65 1447.95 -1674.69Z" fill="#0A0032"/>
</g>
</g>
<path opacity="0.1" d="M1487.12 2161.72C1613.04 2125.57 1753.45 2051.25 1916.71 1871.11C2268.05 1483.42 2300.31 1085.6 1765.89 1024.88C1430.24 986.754 1459.62 433.852 1035.63 74.455C650.79 -251.764 387.373 375.134 174.151 392.804C-352.93 436.428 -604.5 -485.471 -665.943 654.669C-733.607 1910.25 63.7487 1593.52 419.227 1522.91C842.561 1438.83 1020.14 1728.47 1071.21 1884.06C1124.42 2046.44 1221.75 2237.92 1487.12 2161.72Z" fill="#200606" stroke="#5C40C1" stroke-width="2.53391" stroke-miterlimit="10"/>
<rect x="3573" y="-1085.39" width="5927.34" height="4048.01" transform="rotate(90 3573 -1085.39)" fill="black" fill-opacity="0.73"/>
<g opacity="0.2" filter="url(#filter0_f_1_1509)">
<circle cx="1527.75" cy="1114.36" r="934.656" transform="rotate(90 1527.75 1114.36)" fill="#6933DC"/>
</g>
<g opacity="0.1" clip-path="url(#clip1_1_1509)">
<mask id="mask0_1_1509" style="mask-type:alpha" maskUnits="userSpaceOnUse" x="92" y="-700" width="3400" height="3399">
<g clip-path="url(#clip2_1_1509)">
<rect width="3398.17" height="3398.17" transform="translate(3491.01 393.305) rotate(90)" fill="url(#paint3_radial_1_1509)"/>
</g>
</mask>
<g mask="url(#mask0_1_1509)">
<path d="M3491.01 2698.87L3491.01 -699.303" stroke="#C2D6FF" stroke-width="2.35984"/>
<path d="M3349.42 2698.87L3349.42 -699.303" stroke="#C2D6FF" stroke-width="2.35984"/>
<path d="M3207.83 2698.87L3207.83 -699.303" stroke="#C2D6FF" stroke-width="2.35984"/>
<path d="M3066.24 2698.87L3066.24 -699.303" stroke="#C2D6FF" stroke-width="2.35984"/>
<path d="M2924.65 2698.87L2924.65 -699.303" stroke="#C2D6FF" stroke-width="2.35984"/>
<path d="M2783.06 2698.87L2783.06 -699.303" stroke="#C2D6FF" stroke-width="2.35984"/>
<path d="M2641.47 2698.87L2641.47 -699.303" stroke="#C2D6FF" stroke-width="2.35984"/>
<path d="M2499.88 2698.87L2499.88 -699.303" stroke="#C2D6FF" stroke-width="2.35984"/>
<path d="M2358.29 2698.87L2358.29 -699.303" stroke="#C2D6FF" stroke-width="2.35984"/>
<path d="M2216.7 2698.87L2216.7 -699.303" stroke="#C2D6FF" stroke-width="2.35984"/>
<path d="M2075.11 2698.87L2075.11 -699.303" stroke="#C2D6FF" stroke-width="2.35984"/>
<path d="M1933.52 2698.87L1933.52 -699.303" stroke="#C2D6FF" stroke-width="2.35984"/>
<path d="M1791.93 2698.87L1791.93 -699.303" stroke="#C2D6FF" stroke-width="2.35984"/>
<path d="M1650.34 2698.87L1650.34 -699.303" stroke="#C2D6FF" stroke-width="2.35984"/>
<path d="M1508.75 2698.87L1508.75 -699.303" stroke="#C2D6FF" stroke-width="2.35984"/>
<path d="M1367.16 2698.87L1367.16 -699.303" stroke="#C2D6FF" stroke-width="2.35984"/>
<path d="M1225.56 2698.87L1225.56 -699.303" stroke="#C2D6FF" stroke-width="2.35984"/>
<path d="M1083.97 2698.87L1083.97 -699.303" stroke="#EBF1FF" stroke-width="2.35984"/>
<path d="M942.383 2698.87L942.384 -699.303" stroke="#EBF1FF" stroke-width="2.35984"/>
<path d="M800.793 2698.87L800.793 -699.303" stroke="#EBF1FF" stroke-width="2.35984"/>
<path d="M659.202 2698.87L659.202 -699.303" stroke="#EBF1FF" stroke-width="2.35984"/>
<path d="M517.612 2698.87L517.612 -699.303" stroke="#EBF1FF" stroke-width="2.35984"/>
<path d="M376.021 2698.87L376.021 -699.303" stroke="#EBF1FF" stroke-width="2.35984"/>
<path d="M234.43 2698.87L234.43 -699.303" stroke="#EBF1FF" stroke-width="2.35984"/>
<path d="M92.8396 2698.87L92.8399 -699.303" stroke="#EBF1FF" stroke-width="2.35984"/>
<path d="M4057.38 2557.28L-473.523 2557.28" stroke="#EBF1FF" stroke-width="2.35984"/>
<path d="M4057.38 2415.69L-473.523 2415.69" stroke="#EBF1FF" stroke-width="2.35984"/>
<path d="M4057.38 2274.1L-473.523 2274.1" stroke="#EBF1FF" stroke-width="2.35984"/>
<path d="M4057.38 2132.51L-473.523 2132.51" stroke="#EBF1FF" stroke-width="2.35984"/>
<path d="M4057.38 1990.92L-473.523 1990.92" stroke="#EBF1FF" stroke-width="2.35984"/>
<path d="M4057.38 1849.33L-473.523 1849.33" stroke="#C2D6FF" stroke-width="2.35984"/>
<path d="M4057.38 1707.74L-473.523 1707.74" stroke="#C2D6FF" stroke-width="2.35984"/>
<path d="M4057.38 1566.15L-473.523 1566.15" stroke="#C2D6FF" stroke-width="2.35984"/>
<path d="M4057.38 1424.56L-473.523 1424.56" stroke="#C2D6FF" stroke-width="2.35984"/>
<path d="M4057.38 1282.97L-473.523 1282.97" stroke="#C2D6FF" stroke-width="2.35984"/>
<path d="M4057.38 1141.38L-473.523 1141.37" stroke="#C2D6FF" stroke-width="2.35984"/>
<path d="M4057.38 999.784L-473.523 999.784" stroke="#C2D6FF" stroke-width="2.35984"/>
<path d="M4057.38 858.194L-473.523 858.193" stroke="#C2D6FF" stroke-width="2.35984"/>
<path d="M4057.38 716.603L-473.523 716.603" stroke="#C2D6FF" stroke-width="2.35984"/>
<path d="M4057.38 575.013L-473.523 575.012" stroke="#EBF1FF" stroke-width="2.35984"/>
<path d="M4057.38 433.422L-473.523 433.422" stroke="#EBF1FF" stroke-width="2.35984"/>
<path d="M4057.38 291.831L-473.523 291.831" stroke="#EBF1FF" stroke-width="2.35984"/>
<path d="M4057.38 150.241L-473.523 150.24" stroke="#EBF1FF" stroke-width="2.35984"/>
<path d="M4057.38 8.65051L-473.522 8.65012" stroke="#EBF1FF" stroke-width="2.35984"/>
</g>
</g>
<path d="M1438.67 25.4955C1438.67 -39.8615 1455.01 -100.059 1487.69 -155.097C1518.65 -208.415 1560.78 -251.413 1614.1 -284.092C1669.14 -315.05 1729.34 -330.53 1794.7 -330.53C1877.25 -330.53 1946.05 -311.611 2001.09 -273.772C2056.12 -235.934 2120.62 -177.456 2194.58 -98.3393C2247.9 -39.8615 2298.64 -10.6226 2346.8 -10.6226L2393.23 -10.6226L2393.23 -57.0606C2393.23 -110.379 2339.91 -183.476 2233.27 -276.352C2126.64 -367.508 2073.33 -478.444 2073.33 -609.158C2073.33 -674.515 2088.8 -734.713 2119.76 -789.751C2152.44 -843.068 2195.44 -886.067 2248.76 -918.745C2303.79 -949.704 2363.99 -965.183 2429.35 -965.183C2494.71 -965.183 2554.04 -949.704 2607.36 -918.745C2662.4 -886.067 2705.4 -843.068 2736.36 -789.751C2769.03 -734.713 2785.37 -674.515 2785.37 -609.158C2785.37 -480.164 2732.92 -370.088 2628 -278.932C2523.08 -187.776 2470.63 -113.819 2470.63 -57.0606L2470.63 -10.6226L2511.91 -10.6226C2560.06 -10.6226 2610.8 -39.8615 2664.12 -98.3393L2718.3 -157.677C2757.86 -200.675 2805.15 -240.233 2860.19 -276.352C2916.95 -312.471 2984.89 -330.53 3064 -330.53C3129.36 -330.53 3188.7 -315.05 3242.01 -284.092C3297.05 -251.413 3340.05 -208.415 3371.01 -155.097C3403.69 -100.059 3420.03 -39.8614 3420.03 25.4956C3420.03 90.8507 3403.69 150.192 3371.01 203.511C3338.33 258.543 3295.33 301.548 3242.01 332.507C3188.7 365.18 3129.36 381.516 3064 381.516C2935.01 381.516 2824.93 329.059 2733.78 224.147C2642.62 119.234 2568.66 66.7772 2511.91 66.7772L2470.63 66.7772L2470.63 108.049C2470.63 166.529 2523.08 240.483 2628 329.921C2732.92 417.636 2785.37 527.71 2785.37 660.154C2785.37 725.509 2769.03 784.841 2736.36 838.16C2705.4 893.202 2663.26 936.197 2609.94 967.156C2556.62 999.838 2496.43 1016.17 2429.35 1016.17C2363.99 1016.17 2303.79 999.838 2248.76 967.156C2195.44 936.197 2152.44 893.202 2119.76 838.16C2088.8 784.841 2073.33 725.509 2073.33 660.154C2073.33 579.315 2093.1 509.66 2132.66 451.18C2172.22 394.424 2229.84 330.783 2305.51 260.267C2363.99 206.948 2393.23 156.206 2393.23 108.049L2393.23 66.7772L2346.8 66.7772C2283.15 66.7772 2209.2 119.234 2124.92 224.147C2040.65 329.059 1930.57 381.516 1794.7 381.516C1729.34 381.516 1669.14 365.18 1614.1 332.507C1560.78 301.548 1518.65 259.405 1487.69 206.086C1455.01 152.768 1438.67 92.5744 1438.67 25.4955Z" fill="url(#paint4_linear_1_1509)"/>
<path d="M160.257 2640.6C160.257 2575.24 176.593 2515.04 209.276 2460C240.234 2406.69 282.368 2363.69 335.686 2331.01C390.728 2300.05 450.922 2284.57 516.287 2284.57C598.84 2284.57 667.633 2303.49 722.675 2341.33C777.707 2379.17 842.211 2437.64 916.165 2516.76C969.483 2575.24 1020.23 2604.48 1068.38 2604.48L1114.82 2604.48L1114.82 2558.04C1114.82 2504.72 1061.5 2431.62 954.861 2338.75C848.224 2247.59 794.916 2136.66 794.916 2005.94C794.916 1940.59 810.39 1880.39 841.349 1825.35C874.031 1772.03 917.027 1729.03 970.345 1696.36C1025.38 1665.4 1085.58 1649.92 1150.94 1649.92C1216.29 1649.92 1275.63 1665.4 1328.95 1696.36C1383.99 1729.03 1426.98 1772.03 1457.94 1825.35C1490.62 1880.39 1506.96 1940.59 1506.96 2005.94C1506.96 2134.94 1454.5 2245.01 1349.59 2336.17C1244.67 2427.33 1192.21 2501.28 1192.21 2558.04L1192.21 2604.48L1233.49 2604.48C1281.65 2604.48 1332.39 2575.24 1385.71 2516.76L1439.88 2457.42C1479.44 2414.43 1526.74 2374.87 1581.78 2338.75C1638.54 2302.63 1706.47 2284.57 1785.59 2284.57C1850.95 2284.57 1910.28 2300.05 1963.6 2331.01C2018.64 2363.69 2061.64 2406.69 2092.6 2460C2125.28 2515.04 2141.61 2575.24 2141.61 2640.6C2141.61 2705.95 2125.28 2765.29 2092.6 2818.61C2059.92 2873.64 2016.92 2916.65 1963.6 2947.61C1910.28 2980.28 1850.95 2996.62 1785.59 2996.62C1656.6 2996.62 1546.52 2944.16 1455.36 2839.25C1364.21 2734.33 1290.25 2681.88 1233.49 2681.88L1192.21 2681.88L1192.21 2723.15C1192.21 2781.63 1244.67 2855.58 1349.59 2945.02C1454.5 3032.74 1506.96 3142.81 1506.96 3275.26C1506.96 3340.61 1490.62 3399.94 1457.94 3453.26C1426.98 3508.3 1384.85 3551.3 1331.53 3582.26C1278.21 3614.94 1218.01 3631.28 1150.94 3631.28C1085.58 3631.28 1025.38 3614.94 970.345 3582.26C917.027 3551.3 874.031 3508.3 841.349 3453.26C810.39 3399.94 794.915 3340.61 794.915 3275.26C794.915 3194.42 814.689 3124.76 854.247 3066.28C893.805 3009.53 951.423 2945.88 1027.1 2875.37C1085.58 2822.05 1114.82 2771.31 1114.82 2723.15L1114.82 2681.88L1068.38 2681.88C1004.74 2681.88 930.787 2734.33 846.51 2839.25C762.233 2944.16 652.159 2996.62 516.287 2996.62C450.922 2996.62 390.728 2980.28 335.686 2947.61C282.368 2916.65 240.234 2874.51 209.276 2821.19C176.593 2767.87 160.257 2707.68 160.257 2640.6Z" fill="url(#paint5_linear_1_1509)"/>
</g>
<defs>
<filter id="filter0_f_1_1509" x="-620.742" y="-1034.14" width="4296.99" height="4296.99" filterUnits="userSpaceOnUse" color-interpolation-filters="sRGB">
<feFlood flood-opacity="0" result="BackgroundImageFix"/>
<feBlend mode="normal" in="SourceGraphic" in2="BackgroundImageFix" result="shape"/>
<feGaussianBlur stdDeviation="606.919" result="effect1_foregroundBlur_1_1509"/>
</filter>
<linearGradient id="paint0_linear_1_1509" x1="1881.9" y1="3536.96" x2="2052.09" y2="-4156.58" gradientUnits="userSpaceOnUse">
<stop stop-color="#040531"/>
<stop offset="0.29" stop-color="#23124C"/>
<stop offset="0.65" stop-color="#93278F"/>
<stop offset="1" stop-color="#BF0070"/>
</linearGradient>
<linearGradient id="paint1_linear_1_1509" x1="1812" y1="3574.46" x2="1976.97" y2="-4210.87" gradientUnits="userSpaceOnUse">
<stop stop-color="#3D22AA"/>
<stop offset="0.14" stop-color="#441EB6"/>
<stop offset="0.43" stop-color="#93278F"/>
<stop offset="0.75" stop-color="#C64355"/>
<stop offset="1" stop-color="#F15A24"/>
</linearGradient>
<linearGradient id="paint2_linear_1_1509" x1="226.029" y1="820.368" x2="287.52" y2="1087.03" gradientUnits="userSpaceOnUse">
<stop stop-color="#AF99FF" stop-opacity="0.5"/>
<stop offset="0.7" stop-color="#AF99FF" stop-opacity="0"/>
</linearGradient>
<radialGradient id="paint3_radial_1_1509" cx="0" cy="0" r="1" gradientUnits="userSpaceOnUse" gradientTransform="translate(1699.09 1699.09) rotate(90) scale(1699.09 1699.09)">
<stop/>
<stop offset="1" stop-opacity="0"/>
</radialGradient>
<linearGradient id="paint4_linear_1_1509" x1="3491.05" y1="-861.381" x2="1498.77" y2="804.927" gradientUnits="userSpaceOnUse">
<stop stop-color="#8B7DB2"/>
<stop offset="1" stop-color="#180B32" stop-opacity="0"/>
</linearGradient>
<linearGradient id="paint5_linear_1_1509" x1="2212.64" y1="1753.72" x2="220.353" y2="3420.03" gradientUnits="userSpaceOnUse">
<stop stop-color="#8B7DB2"/>
<stop offset="1" stop-color="#180B32"/>
</linearGradient>
<clipPath id="clip0_1_1509">
<rect width="2698.87" height="3573" fill="white" transform="translate(3573 0.00012207) rotate(90)"/>
</clipPath>
<clipPath id="clip1_1_1509">
<rect width="3583.93" height="2698.87" fill="white" transform="translate(3583.93 2698.87) rotate(-180)"/>
</clipPath>
<clipPath id="clip2_1_1509">
<rect width="3398.17" height="3398.17" fill="white" transform="translate(3491.01 -699.303) rotate(90)"/>
</clipPath>
</defs>
</svg>
