<?xml version="1.0" encoding="UTF-8"?><svg id="Layer_1" xmlns="http://www.w3.org/2000/svg" viewBox="0 0 2401.05236 703.40426"><defs><style>.cls-1{fill:#383838;}.cls-2{fill:none;stroke:#fff;stroke-miterlimit:10;stroke-width:1.83523px;}.cls-3{fill:#6b35e8;}</style></defs><path class="cls-3" d="M469.40877,0h-235.41378C104.76313,0,0,104.76313,0,233.99499v235.41403c0,129.232,104.76324,233.99524,233.99524,233.99524h235.41354c129.232,0,233.99524-104.76324,233.99524-233.99524v-235.41378C703.40401,104.76324,598.64078,0,469.40877,0ZM255.89006,583.8552c-81.21908,0-147.07109-65.80966-147.07109-147.02874,0-81.22755,65.85201-147.07109,147.07109-147.07109,81.22755,0,147.02874,65.84354,147.02874,147.07109,0,81.21908-65.80119,147.02874-147.02874,147.02874ZM549.54138,429.13455c0,4.24798-3.44413,7.6919-7.69211,7.6919h-39.75486c-4.19716,0-7.54822-3.36789-7.68364-7.56506-3.92632-125.32357-105.20061-226.24242-230.95565-230.15179-4.19716-.12685-7.56506-3.47801-7.56506-7.67517v-40.60954c0-4.24798,3.44402-7.6919,7.6919-7.6919h278.2673c4.24798,0,7.69211,3.44392,7.69211,7.6919v278.30966ZM312.04435,413.86045c-18.33727,0-33.18828-14.89335-33.18828-33.23063,0-10.4677,4.8657-19.79293,12.45617-25.87712-10.83141-4.71344-22.84763-7.31115-35.42218-7.31115-49.37635,0-89.37665,40.00856-89.37665,89.38491,0,49.334,40.0003,89.3343,89.37665,89.3343,49.3339,0,89.37644-40.0003,89.37644-89.3343,0-12.58322-2.58934-24.59087-7.30268-35.42218-6.08429,7.59047-15.45178,12.45617-25.91948,12.45617Z"/><path class="cls-1" d="M1428.26711,298.25132h80.20946v315.50871h-80.20946v-315.50871ZM1428.26711,272.97907h80.20946v-80.05623h-80.20946v80.05623ZM1237.28652,291.65658h-91.51188v-132.37143h-80.20946v454.47488h80.20946v-251.07099h91.51188c32.34939,0,58.67158,26.32219,58.67158,58.67725v192.39374h80.39107v-183.04647c0-76.67373-62.38324-139.05697-139.06265-139.05697ZM936.6103,175.28391h-80.2123v324.18629c0,63.01888,51.26811,114.28983,114.28699,114.28983h49.10864v-80.21514h-49.10864c-18.78819,0-34.07469-15.28367-34.07469-34.07469v-141.63925h83.18333v-69.64767h-83.18333v-112.89937ZM2020.10203,159.28515h80.20946v454.47488l-168.88652-.16458c-76.42401,0-138.60295-62.17893-138.60295-138.60295v-44.27894c0-76.42401,62.17893-138.60295,138.60295-138.60295h88.67706v-132.82546ZM1872.28235,421.36629v62.00867c0,32.61046,26.53218,59.13695,59.14263,59.13695h88.67706v-180.27691h-88.67706c-32.61046,0-59.14263,26.5265-59.14263,59.13128ZM1642.91382,322.16149v-23.91017h-80.20946v315.50871h80.20946v-170.25427c0-44.60811,36.29375-80.90185,80.90185-80.90185h59.43775v-70.86219h-59.43775c-29.31876,0-61.27655,12.45168-80.90185,30.41978ZM2288.92998,613.76003h80.20946v-315.50871h-80.20946v315.50871Z"/><path class="cls-1" d="M2329.03234,129.16897c-39.76001,0-72.01001,32.22998-72.01001,72.00995,0,39.76001,32.25,72.01001,72.01001,72.01001,39.77979,0,72.02002-32.25,72.02002-72.01001,0-39.77997-32.24023-72.00995-72.02002-72.00995ZM2329.03234,258.37893c-31.58008,0-57.2002-25.62-57.2002-57.20001,0-31.59998,25.62012-57.20996,57.2002-57.20996,31.59985,0,57.20996,25.60999,57.20996,57.20996,0,31.58002-25.61011,57.20001-57.20996,57.20001ZM2354.75742,191.63536c-8.93655,0-16.18157-7.24494-16.18157-16.16864,0-5.32066,2.55699-10.02146,6.52175-12.97879-4.94625-2.06632-10.37017-3.20278-16.06523-3.20278-23.14252,0-41.89401,18.75149-41.89401,41.89377s18.75149,41.89377,41.89401,41.89377,41.89369-18.75141,41.89369-41.89377c0-5.69514-1.13662-11.11913-3.18978-16.06531-2.97034,3.96468-7.67129,6.52175-12.97887,6.52175Z"/><rect class="cls-2" x="-2672.74861" y="-277.6293" width="5394.06395" height="4410.8209"/></svg>